<svg xmlns="http://www.w3.org/2000/svg" viewBox="0 0 1200 675" role="img" aria-label="Cryptography">
  <defs>
    <linearGradient id="bg" x1="0" y1="0" x2="1" y2="1"><stop offset="0" stop-color="#05070a"/><stop offset="0.55" stop-color="#071511"/><stop offset="1" stop-color="#020304"/></linearGradient>
    <filter id="glow"><feGaussianBlur stdDeviation="5" result="blur"/><feMerge><feMergeNode in="blur"/><feMergeNode in="SourceGraphic"/></feMerge></filter>
    <pattern id="grid" width="48" height="48" patternUnits="userSpaceOnUse"><path d="M48 0H0v48" fill="none" stroke="#faff00" stroke-opacity="0.12"/></pattern>
  </defs>
  <rect width="1200" height="675" fill="url(#bg)"/>
  <rect width="1200" height="675" fill="url(#grid)"/>
  <g opacity="0.22" font-family="monospace" font-size="18" fill="#faff00">
    <text x="44" y="70">01001100 01101111 01100111 00101110 00101110</text><text x="730" y="126">AUTH HASH TOKEN TLS DNS</text><text x="88" y="604">CYBERSEC SIGNAL MAP</text>
  </g>
  <g filter="url(#glow)">
    <path d="M180 480 C300 300 430 570 560 350 S830 230 1030 430" fill="none" stroke="#faff00" stroke-width="5" stroke-linecap="round" opacity="0.9"/>
    <circle cx="255" cy="405" r="56" fill="none" stroke="#39ff14" stroke-width="7"/><circle cx="585" cy="342" r="82" fill="none" stroke="#faff00" stroke-width="8"/><circle cx="910" cy="365" r="64" fill="none" stroke="#39ff14" stroke-width="7"/>
    <rect x="168" y="150" width="864" height="345" rx="28" fill="#07100d" fill-opacity="0.72" stroke="#faff00" stroke-width="3"/>
    <path d="M260 360h180l70-105 120 210 95-150h220" fill="none" stroke="#39ff14" stroke-width="8" stroke-linecap="round" stroke-linejoin="round"/>
    <circle cx="510" cy="255" r="16" fill="#faff00"/><circle cx="725" cy="315" r="16" fill="#39ff14"/>
  </g>
  <text x="600" y="214" text-anchor="middle" font-family="JetBrains Mono, monospace" font-size="54" font-weight="800" fill="#faff00" filter="url(#glow)">CRYPTOGRAPHY</text>
  <text x="600" y="274" text-anchor="middle" font-family="JetBrains Mono, monospace" font-size="24" fill="#dfffe7">Example gallery A</text>
  <rect x="64" y="56" width="1072" height="563" rx="32" fill="none" stroke="#faff00" stroke-opacity="0.45" stroke-width="2"/>
</svg>