<svg xmlns="http://www.w3.org/2000/svg" viewBox="0 0 1200 675" role="img" aria-label="IP REPUTATION EXAMPLE PANEL A">
  <defs>
    <linearGradient id="bg" x1="0" y1="0" x2="1" y2="1"><stop offset="0" stop-color="#010302"/><stop offset="0.45" stop-color="#05130c"/><stop offset="1" stop-color="#000"/></linearGradient>
    <radialGradient id="pulse" cx="50%" cy="45%" r="65%"><stop offset="0" stop-color="#f5ff39" stop-opacity="0.18"/><stop offset="0.55" stop-color="#39ff4a" stop-opacity="0.08"/><stop offset="1" stop-color="#000" stop-opacity="0"/></radialGradient>
    <filter id="glow"><feGaussianBlur stdDeviation="5" result="blur"/><feMerge><feMergeNode in="blur"/><feMergeNode in="SourceGraphic"/></feMerge></filter>
    <pattern id="grid" width="44" height="44" patternUnits="userSpaceOnUse"><path d="M44 0H0v44" fill="none" stroke="#f5ff39" stroke-opacity="0.12"/></pattern>
  </defs>
  <rect width="1200" height="675" fill="url(#bg)"/>
  <rect width="1200" height="675" fill="url(#grid)"/>
  <rect width="1200" height="675" fill="url(#pulse)"/>
  <g opacity="0.22" font-family="JetBrains Mono, monospace" font-size="17" fill="#f5ff39">
    <text x="52" y="70">01000011 01011001 01000010 01000101 01010010</text>
    <text x="770" y="120">TLS DNS HASH JWT CVE OSINT</text>
    <text x="68" y="624">CYBERSEC STATIC PORTAL // LOCAL-FIRST</text>
  </g>
  <g filter="url(#glow)"><circle cx="600" cy="342" r="88" fill="#06100b" stroke="#f5ff39" stroke-width="7"/><circle cx="306" cy="250" r="48" fill="#06100b" stroke="#39ff4a" stroke-width="5"/><circle cx="894" cy="250" r="48" fill="#06100b" stroke="#39ff4a" stroke-width="5"/><circle cx="360" cy="520" r="48" fill="#06100b" stroke="#f5ff39" stroke-width="5"/><circle cx="840" cy="520" r="48" fill="#06100b" stroke="#f5ff39" stroke-width="5"/><path d="M352 266l166 52M848 266l-166 52M409 494l128-92M791 494l-128-92" stroke="#f5ff39" stroke-width="5" opacity=".75"/><text x="600" y="354" text-anchor="middle" font-family="monospace" font-size="34" fill="#39ff4a">ASN</text></g>
  <rect x="54" y="48" width="1092" height="579" rx="32" fill="none" stroke="#f5ff39" stroke-opacity="0.48" stroke-width="2"/>
  <path d="M80 112h210M910 563h210" stroke="#39ff4a" stroke-width="4" stroke-linecap="round" opacity="0.7"/>
  <text x="600" y="92" text-anchor="middle" font-family="JetBrains Mono, monospace" font-size="22" fill="#39ff4a">EXAMPLE PANEL A</text>
  <text x="600" y="646" text-anchor="middle" font-family="JetBrains Mono, monospace" font-size="18" fill="#dfffe7">infrastructure risk signals // image 4</text>
  <text x="600" y="154" text-anchor="middle" font-family="JetBrains Mono, monospace" font-size="48" font-weight="800" fill="#f5ff39" filter="url(#glow)">IP REPUTATION</text>
</svg>