<svg xmlns="http://www.w3.org/2000/svg" viewBox="0 0 1200 675" role="img" aria-label="JWT SECURITY DEFENSE WORKFLOW">
  <defs>
    <linearGradient id="bg" x1="0" y1="0" x2="1" y2="1"><stop offset="0" stop-color="#010302"/><stop offset="0.45" stop-color="#05130c"/><stop offset="1" stop-color="#000"/></linearGradient>
    <radialGradient id="pulse" cx="50%" cy="45%" r="65%"><stop offset="0" stop-color="#00f5ff" stop-opacity="0.18"/><stop offset="0.55" stop-color="#39ff4a" stop-opacity="0.08"/><stop offset="1" stop-color="#000" stop-opacity="0"/></radialGradient>
    <filter id="glow"><feGaussianBlur stdDeviation="5" result="blur"/><feMerge><feMergeNode in="blur"/><feMergeNode in="SourceGraphic"/></feMerge></filter>
    <pattern id="grid" width="44" height="44" patternUnits="userSpaceOnUse"><path d="M44 0H0v44" fill="none" stroke="#00f5ff" stroke-opacity="0.12"/></pattern>
  </defs>
  <rect width="1200" height="675" fill="url(#bg)"/>
  <rect width="1200" height="675" fill="url(#grid)"/>
  <rect width="1200" height="675" fill="url(#pulse)"/>
  <g opacity="0.22" font-family="JetBrains Mono, monospace" font-size="17" fill="#00f5ff">
    <text x="52" y="70">01000011 01011001 01000010 01000101 01010010</text>
    <text x="770" y="120">TLS DNS HASH JWT CVE OSINT</text>
    <text x="68" y="624">CYBERSEC STATIC PORTAL // LOCAL-FIRST</text>
  </g>
  <g filter="url(#glow)"><rect x="306" y="230" width="588" height="300" rx="30" fill="#06100b" stroke="#00f5ff" stroke-width="6"/><path d="M386 316h210M386 390h360M386 464h260" stroke="#39ff4a" stroke-width="12" stroke-linecap="round"/><circle cx="766" cy="348" r="56" fill="none" stroke="#00f5ff" stroke-width="8"/><path d="M742 348l18 18 38-48" fill="none" stroke="#39ff4a" stroke-width="9" stroke-linecap="round" stroke-linejoin="round"/><text x="600" y="584" text-anchor="middle" font-family="monospace" font-size="24" fill="#00f5ff">HEADER.PAYLOAD.SIGNATURE</text></g>
  <rect x="54" y="48" width="1092" height="579" rx="32" fill="none" stroke="#00f5ff" stroke-opacity="0.48" stroke-width="2"/>
  <path d="M80 112h210M910 563h210" stroke="#39ff4a" stroke-width="4" stroke-linecap="round" opacity="0.7"/>
  <text x="600" y="92" text-anchor="middle" font-family="JetBrains Mono, monospace" font-size="22" fill="#39ff4a">DEFENSE WORKFLOW</text>
  <text x="600" y="646" text-anchor="middle" font-family="JetBrains Mono, monospace" font-size="18" fill="#dfffe7">token claims inspection // image 3</text>
  <text x="600" y="154" text-anchor="middle" font-family="JetBrains Mono, monospace" font-size="48" font-weight="800" fill="#00f5ff" filter="url(#glow)">JWT SECURITY</text>
</svg>