<svg xmlns="http://www.w3.org/2000/svg" width="1400" height="760" viewBox="0 0 1400 760" role="img" aria-label="Web security checklist">
  <defs><linearGradient id="g" x1="0" x2="1"><stop offset="0" stop-color="#020805"/><stop offset="1" stop-color="#07391f"/></linearGradient><filter id="glow"><feGaussianBlur stdDeviation="4" result="b"/><feMerge><feMergeNode in="b"/><feMergeNode in="SourceGraphic"/></feMerge></filter></defs>
  <rect width="1400" height="760" fill="url(#g)"/>
  <g opacity=".2" stroke="#39ff4a" stroke-width="1"><path d="M70 0v760"/><path d="M140 0v760"/><path d="M210 0v760"/><path d="M280 0v760"/><path d="M350 0v760"/><path d="M420 0v760"/><path d="M490 0v760"/><path d="M560 0v760"/><path d="M630 0v760"/><path d="M700 0v760"/><path d="M770 0v760"/><path d="M840 0v760"/><path d="M910 0v760"/><path d="M980 0v760"/><path d="M1050 0v760"/><path d="M1120 0v760"/><path d="M1190 0v760"/><path d="M1260 0v760"/><path d="M1330 0v760"/><path d="M0 55h1400"/><path d="M0 110h1400"/><path d="M0 165h1400"/><path d="M0 220h1400"/><path d="M0 275h1400"/><path d="M0 330h1400"/><path d="M0 385h1400"/><path d="M0 440h1400"/><path d="M0 495h1400"/><path d="M0 550h1400"/><path d="M0 605h1400"/><path d="M0 660h1400"/><path d="M0 715h1400"/></g>
  <circle cx="1080" cy="210" r="120" fill="none" stroke="#39ff4a" stroke-width="3" opacity=".55" filter="url(#glow)"/>
  <path d="M230 470 C420 300 560 610 760 390 S1080 340 1220 520" fill="none" stroke="#39ff4a" stroke-width="7" filter="url(#glow)"/>
  <rect x="120" y="120" width="820" height="300" rx="28" fill="rgba(0,0,0,.48)" stroke="#39ff4a" stroke-width="3" filter="url(#glow)"/>
  <text x="165" y="235" fill="#39ff4a" font-family="JetBrains Mono, monospace" font-size="54" font-weight="800">CYBERSEC</text>
  <text x="165" y="315" fill="#d6ffe0" font-family="JetBrains Mono, monospace" font-size="36">Web security checklist</text>
  <text x="165" y="365" fill="#8aff99" font-family="JetBrains Mono, monospace" font-size="24">technical learning node hero</text>
</svg>